<svg id="Capa_1" enable-background="new 0 0 513.417 513.417" height="512" viewBox="0 0 513.417 513.417" width="512" xmlns="http://www.w3.org/2000/svg"><g><path d="m25.993 416.882c-3.616-2.016-8.187-.72-10.203 2.898-10.039 18.006-15.346 38.407-15.346 58.996v26.949c0 4.142 3.357 7.5 7.5 7.5s7.5-3.358 7.5-7.5v-26.949c0-18.039 4.65-35.913 13.447-51.691 2.017-3.618.72-8.186-2.898-10.203z"/><path d="m385.14 257.75c-1.017 0-2.03.015-3.041.038-4.141.096-7.421 3.53-7.325 7.671s3.532 7.438 7.671 7.325c.896-.021 1.794-.034 2.695-.034 18.473 0 35.924 4.462 51.33 12.366l-8.108 8.108c-3.225 3.227-7.671 4.796-12.215 4.308l-22.391-2.411c-11.801-1.269-23.631 2.549-32.462 10.479-8.829 7.93-13.894 19.285-13.894 31.153 0 2.529.236 5.003.668 7.409-2.406-.433-4.878-.672-7.406-.672-11.868 0-23.223 5.064-31.153 13.894s-11.749 20.662-10.479 32.462l2.411 22.39c.488 4.538-1.082 8.99-4.309 12.216l-12.462 12.462c-7.904-15.407-12.366-32.857-12.366-51.331 0-24.771 7.875-48.278 22.772-67.978 14.419-19.067 34.902-33.32 57.677-40.132 3.969-1.187 6.223-5.366 5.036-9.335-1.188-3.968-5.368-6.222-9.335-5.036-25.808 7.719-49.013 23.862-65.343 45.456-9.577 12.664-16.586 26.717-20.865 41.628l-17.319-7.066v-30.9c19.541-15.28 33.228-37.155 38.263-61.682 18.768-.278 33.953-15.622 33.953-34.456 0-4.113-.727-8.059-2.054-11.719 13.396-9.943 18.715-27.474 13.388-43.063 12.688-12.108 15.622-31.647 6.563-47.057l-1.697-2.887 1.118-5.803c3.001-15.567-3.719-31.101-17.119-39.574l-9.859-6.234-1.146-7.163c-3.053-19.094-19.958-32.927-39.249-32.185l-3.383.131-6.412-5.825c-9.396-8.537-22.37-11.854-34.717-8.866l-9.285 2.247-6.818-3.618c-11.225-5.956-24.631-5.956-35.855 0l-6.818 3.618-9.285-2.247c-12.342-2.986-25.32.33-34.717 8.866l-6.412 5.825-3.383-.131c-19.327-.727-36.194 13.093-39.247 32.185l-1.146 7.163-9.859 6.234c-13.4 8.473-20.12 24.007-17.119 39.574l1.118 5.803-1.697 2.887c-9.059 15.41-6.124 34.95 6.563 47.058-5.432 15.896.211 33.804 14.194 43.635-1.2 3.499-1.86 7.246-1.86 11.147 0 18.805 15.139 34.131 33.868 34.453 1.644 8.158 4.263 16.108 7.858 23.78 1.758 3.75 6.222 5.367 9.974 3.609 3.751-1.758 5.366-6.223 3.608-9.974-5.64-12.037-8.5-24.866-8.5-38.132v-45.661l3.254-1.168c14.772-5.302 25.034-18.844 26.144-34.5l.849-11.984c11.04.173 21.47-4.184 29.039-11.99l.544.353c13.308 8.642 30.371 8.531 43.557-.257 7.563 7.747 18.023 12.075 28.945 11.894l.91 12.844c1.063 15.011 10.771 28.342 24.729 33.962l4.607 1.855v44.352c0 37.99-24.056 72.047-59.861 84.75l-.736.261c-13.703 4.862-28.787 4.831-42.469-.087-12.881-4.629-24.715-12.277-34.225-22.116-2.879-2.978-7.625-3.06-10.604-.181s-3.06 7.627-.181 10.605c3.439 3.558 7.14 6.869 11.056 9.908v16.652c-14.191 2.689-25.762 12.853-30.453 26.233l-27.01 11.02c-14.7 5.998-27.9 14.7-39.234 25.864-2.95 2.907-2.986 7.656-.079 10.606 1.468 1.49 3.404 2.237 5.343 2.237 1.9 0 3.803-.718 5.264-2.157 9.932-9.783 21.496-17.408 34.373-22.662l19.085-7.787v47.106c-13.638 3.369-23.781 15.703-23.781 30.366 0 17.249 14.032 31.281 31.281 31.281s31.281-14.033 31.281-31.281c0-14.663-10.144-26.997-23.781-30.366v-50.961c0-.779.041-1.548.11-2.309l20.547-8.383 43.26 75.345c1.954 3.4 5.604 5.514 9.524 5.516h.007c3.918 0 7.567-2.108 9.524-5.505l43.4-75.359 16.961 6.92c-1.081 6.733-1.632 13.596-1.632 20.548 0 70.488 57.346 127.833 127.834 127.833 70.487 0 127.833-57.346 127.833-127.833s-57.346-127.833-127.833-127.833zm-99.987-22.375c.109-1.943.183-3.893.183-5.856v-32.702c9.478 1.304 16.809 9.435 16.809 19.265 0 9.894-7.424 18.07-16.992 19.293zm-209.203-19.293c0-9.83 7.331-17.959 16.809-19.262v32.998c0 1.858.051 3.709.147 5.552-9.55-1.24-16.956-9.407-16.956-19.288zm180.013-67.792-1.143-16.128c-.222-3.133-1.728-6.089-4.133-8.11-2.404-2.02-5.567-2.995-8.7-2.673-9.172.947-18.022-3.254-23.094-10.956-1.104-1.675-2.832-2.839-4.799-3.23-1.969-.391-4.011.021-5.671 1.146l-5.438 3.684c-8.216 5.567-18.904 5.671-27.228.266l-6.207-4.031c-3.459-2.247-8.082-1.278-10.349 2.165-5.072 7.702-13.916 11.897-23.093 10.956-3.123-.321-6.297.653-8.701 2.673-2.405 2.021-3.911 4.977-4.133 8.109l-1.082 15.269c-.688 9.73-7.066 18.146-16.247 21.442l-6.678 2.396c-3.894 1.398-6.51 5.118-6.51 9.254v1.205c-8.636.663-16.387 4.517-22.078 10.389-8.945-6.845-11.781-19.327-6.35-29.451 1.734-3.231.877-7.243-2.026-9.483l-1.477-1.14c-9.255-7.139-11.768-20.121-5.844-30.196l3.132-5.327c.925-1.573 1.244-3.429.898-5.221l-1.654-8.583c-1.824-9.463 2.261-18.906 10.406-24.056l12.723-8.044c1.82-1.151 3.058-3.028 3.398-5.155l1.681-10.508c1.81-11.309 11.591-19.582 22.954-19.582.301 0 .604.006.905.018l6.445.249c1.981.069 3.879-.622 5.333-1.943l8.682-7.886c5.714-5.19 13.604-7.204 21.104-5.39l12.051 2.916c1.782.432 3.661.194 5.278-.664l9.331-4.951c6.824-3.621 14.973-3.621 21.797 0l9.331 4.951c1.618.859 3.496 1.096 5.278.664l12.051-2.916c7.504-1.814 15.391.2 21.104 5.39l8.682 7.886c1.454 1.321 3.333 2.019 5.333 1.943l6.444-.249c11.77-.454 22.003 7.958 23.858 19.564l1.681 10.508c.341 2.126 1.578 4.004 3.398 5.155l12.723 8.044c8.146 5.15 12.23 14.593 10.406 24.056l-1.654 8.583c-.346 1.792-.026 3.647.898 5.221l3.132 5.327c5.924 10.076 3.411 23.058-5.845 30.198l-1.476 1.139c-2.903 2.24-3.761 6.252-2.026 9.483 5.314 9.906 2.697 22.056-5.798 28.988-5.646-5.614-13.221-9.28-21.63-9.926v-.049c0-4.034-2.418-7.614-6.16-9.121l-7.845-3.159c-8.675-3.495-14.708-11.78-15.368-21.109zm-131.577 301.848c0 8.978-7.304 16.281-16.281 16.281s-16.281-7.304-16.281-16.281 7.304-16.281 16.281-16.281 16.281 7.304 16.281 16.281zm64.671-30.191-40.949-71.319c.123-.616.208-1.243.208-1.889v-24.352c4.473 2.39 9.115 4.46 13.881 6.173 8.517 3.061 17.473 4.592 26.429 4.592 8.851 0 17.701-1.495 26.131-4.485l.736-.261c5.021-1.781 9.837-3.931 14.437-6.396v24.73c0 .643.085 1.268.206 1.881zm182.261-103.188c5.667-5.089 13.253-7.539 20.833-6.725l22.391 2.411c9.072.978 17.977-2.164 24.428-8.615l10.73-10.73c9.156 6.411 17.324 14.14 24.218 22.918l-11.381 11.38c-6.452 6.453-9.592 15.356-8.614 24.427l2.41 22.391c.815 7.573-1.636 15.166-6.725 20.833-5.09 5.667-12.377 8.917-19.994 8.917-14.817 0-26.873-12.055-26.873-26.873 0-7.426-6.041-13.467-13.467-13.467-14.817 0-26.873-12.055-26.873-26.873 0-7.617 3.25-14.905 8.917-19.994zm17.097 67.732c-1.926-.347-3.898-.562-5.906-.634-.071-2.008-.301-3.975-.647-5.902 1.927.348 3.896.572 5.905.643.072 2.006.302 3.97.648 5.893zm-95.76 65.652 15.085-15.084c6.452-6.451 9.593-15.354 8.616-24.428l-2.411-22.391c-.815-7.572 1.636-15.166 6.725-20.833 5.09-5.667 12.377-8.917 19.993-8.917 14.817 0 26.873 12.055 26.873 26.873 0 7.426 6.042 13.467 13.468 13.467 14.817 0 26.873 12.055 26.873 26.873 0 7.617-3.25 14.904-8.917 19.994s-13.264 7.539-20.833 6.725l-22.391-2.411c-9.069-.977-17.976 2.164-24.428 8.616l-15.735 15.735c-8.778-6.894-16.507-15.062-22.918-24.219zm92.485 48.274c-20.758 0-40.221-5.641-56.947-15.461l13.724-13.723c3.226-3.227 7.675-4.797 12.215-4.308l22.391 2.411c11.797 1.27 23.631-2.549 32.461-10.479s13.895-19.285 13.895-31.153c0-2.527-.236-4.999-.67-7.403 2.405.433 4.879.666 7.407.666 11.868 0 23.224-5.064 31.154-13.895 7.93-8.83 11.749-20.662 10.479-32.461l-2.41-22.392c-.489-4.536 1.081-8.988 4.308-12.214l9.368-9.368c9.82 16.726 15.46 36.189 15.46 56.947-.002 62.216-50.619 112.833-112.835 112.833z"/></g></svg>