<svg id="Capa_1" enable-background="new 0 0 513.438 513.438" height="512" viewBox="0 0 513.438 513.438" width="512" xmlns="http://www.w3.org/2000/svg"><g><path d="m33.645 406.179c-3.359-2.424-8.047-1.666-10.471 1.692-15 20.784-22.929 45.31-22.929 70.925v26.949c0 4.142 3.358 7.5 7.5 7.5s7.5-3.358 7.5-7.5v-26.949c0-22.444 6.948-43.934 20.092-62.147 2.424-3.358 1.666-8.046-1.692-10.47z"/><path d="m121.59 448.199h-61.777c-7.015 0-12.723 5.708-12.723 12.723v23.038c0 7.015 5.708 12.723 12.723 12.723h61.777c7.015 0 12.723-5.708 12.723-12.723v-23.038c0-7.015-5.708-12.723-12.723-12.723zm-2.277 33.484h-57.223v-18.483h57.223z"/><path d="m455.177 278.514c-3.467-2.265-8.114-1.29-10.381 2.178-2.265 3.468-1.29 8.116 2.178 10.381 32.072 20.949 51.219 56.288 51.219 94.532 0 62.217-50.617 112.833-112.833 112.833s-112.833-50.617-112.833-112.833 50.617-112.833 112.833-112.833c11.783 0 23.406 1.814 34.545 5.394 3.94 1.266 8.167-.902 9.435-4.847 1.267-3.943-.903-8.167-4.847-9.435-12.624-4.056-25.791-6.112-39.133-6.112-58.273 0-107.562 39.195-122.895 92.606l-17.734-7.235v-29.982c24.637-18.705 40.274-47.779 41.501-79.572 18.704-.352 33.814-15.665 33.814-34.452 0-9.69-4.025-18.453-10.484-24.721v-77.524c0-13.649-5.686-26.552-15.673-35.742-12.484-36.668-46.563-61.15-85.469-61.15h-37.945c-14.512 0-28.978 3.555-41.833 10.279-3.67 1.92-5.089 6.452-3.169 10.122s6.451 5.09 10.122 3.169c10.718-5.607 22.779-8.57 34.88-8.57h37.945c33.036 0 61.9 21.171 71.824 52.681.429 1.361 1.237 2.572 2.331 3.49 7.618 6.397 11.987 15.772 11.987 25.721v68.969c-2.639-.713-5.403-1.117-8.25-1.177v-34.086c0-13.04-5.946-25.055-16.313-32.964-10.366-7.909-23.524-10.472-36.103-7.026l-37.793 10.35c-4.06 1.112-8.371 1.183-12.467.204l-38.801-9.273c-12.423-2.97-25.298-.134-35.324 7.778s-15.777 19.776-15.777 32.548v32.466c-3.263.055-6.417.56-9.4 1.465v-69.254c0-9.948 4.369-19.323 11.987-25.721 1.093-.918 1.901-2.129 2.331-3.49 3.009-9.555 7.806-18.276 14.257-25.921 2.671-3.166 2.271-7.897-.895-10.569s-7.898-2.27-10.569.895c-7.281 8.628-12.804 18.396-16.437 29.064-9.988 9.19-15.674 22.093-15.674 35.742v78.534c-5.87 6.183-9.484 14.529-9.484 23.708 0 18.835 15.188 34.181 33.958 34.456 1.11 30.911 15.882 59.313 39.309 78.123v31.428l-57.462 23.445c-10.229 4.173-19.858 9.745-28.618 16.559-3.27 2.543-3.858 7.255-1.315 10.525 1.479 1.901 3.69 2.896 5.925 2.896 1.609 0 3.231-.516 4.6-1.581 7.678-5.973 16.114-10.854 25.075-14.51l43.393-17.705 58.344 145.952c1.138 2.846 3.892 4.713 6.956 4.716h.008c3.061 0 5.815-1.86 6.958-4.7l58.37-145.063 3.805 1.553c-1.068 6.638-1.631 13.442-1.631 20.377 0 70.488 57.346 127.833 127.833 127.833s127.833-57.346 127.833-127.833c.001-43.328-21.687-83.362-58.014-107.091zm-150.132-79.38c0 10.487-8.341 19.041-18.734 19.432v-38.863c10.393.39 18.734 8.944 18.734 19.431zm-230.195 0c0-10.538 8.421-19.126 18.884-19.439v38.878c-10.463-.313-18.884-8.901-18.884-19.439zm33.884 30.704v-97.625c0-8.152 3.67-15.724 10.069-20.773 4.735-3.737 10.466-5.699 16.339-5.699 2.063 0 4.145.242 6.206.735l38.8 9.273c6.544 1.564 13.431 1.452 19.917-.326l37.792-10.35c8.028-2.199 16.425-.563 23.042 4.485 6.616 5.048 10.411 12.716 10.411 21.039v98.946c0 37.989-24.055 72.045-59.86 84.746l-.738.262c-13.704 4.862-28.786 4.831-42.468-.087-35.595-12.793-59.51-46.801-59.51-84.626zm54.438 98.742c8.518 3.062 17.472 4.592 26.429 4.592 8.849 0 17.701-1.495 26.129-4.485l.737-.262c4.597-1.631 9.017-3.58 13.263-5.787v24.121c0 .475.038.942.104 1.401l-39.293 32.983c-.472.395-1.149.389-1.612-.016l-40.813-35.629v-23.722c4.783 2.636 9.81 4.919 15.056 6.804zm26.873 157.209-51.44-128.682 40.46 35.321c3.077 2.686 6.875 4.032 10.678 4.032 3.699 0 7.401-1.274 10.442-3.827l41.258-34.633.018.008z"/><path d="m376.122 344.88c0 12.57 10.227 22.797 22.796 22.797 12.57 0 22.797-10.227 22.797-22.797s-10.227-22.796-22.797-22.796-22.796 10.227-22.796 22.796zm22.796-7.796c4.299 0 7.797 3.498 7.797 7.796 0 4.299-3.498 7.797-7.797 7.797s-7.796-3.498-7.796-7.797c0-4.298 3.497-7.796 7.796-7.796z"/><path d="m370.933 403.865c-12.57 0-22.797 10.227-22.797 22.796 0 12.57 10.227 22.797 22.797 22.797s22.796-10.227 22.796-22.797c0-12.569-10.227-22.796-22.796-22.796zm0 30.593c-4.299 0-7.797-3.498-7.797-7.797s3.498-7.796 7.797-7.796 7.796 3.498 7.796 7.796c0 4.3-3.498 7.797-7.796 7.797z"/><path d="m290.596 385.771c0 52.014 42.316 94.33 94.33 94.33s94.33-42.316 94.33-94.33-42.316-94.33-94.33-94.33-94.33 42.316-94.33 94.33zm106.153 78.18c-2.475.469-4.981.796-7.497 1.026 0 .001 0 .001.001.002-1.433.077-2.875.123-4.327.123-43.743 0-79.33-35.587-79.33-79.33 0-21.073 8.275-40.237 21.726-54.458-.837 3.653-1.3 7.429-1.3 11.288 0 28.074 22.84 50.915 50.915 50.915h9.906c19.803 0 35.915 16.111 35.915 35.915-.001 15.977-10.681 30.13-26.009 34.519zm67.506-78.18c0 25.095-11.726 47.49-29.972 62.037 2.241-5.748 3.474-11.955 3.474-18.377 0-28.075-22.84-50.915-50.915-50.915h-9.906c-19.803 0-35.915-16.111-35.915-35.915 0-14.432 8.716-27.37 21.698-32.974 7.052-2.06 14.498-3.186 22.206-3.186 43.743 0 79.33 35.587 79.33 79.33z"/></g></svg>