<svg id="Capa_1" enable-background="new 0 0 512.991 512.991" height="512" viewBox="0 0 512.991 512.991" width="512" xmlns="http://www.w3.org/2000/svg"><g><path d="m454.577 278.179c-3.463-2.27-8.113-1.304-10.384 2.161s-1.304 8.113 2.161 10.384c31.976 20.961 51.065 56.263 51.065 94.432 0 62.217-50.616 112.833-112.833 112.833s-112.834-50.617-112.834-112.833 50.617-112.833 112.834-112.833c11.849 0 23.532 1.834 34.726 5.452 3.94 1.271 8.169-.889 9.443-4.831 1.273-3.941-.889-8.169-4.83-9.443-12.687-4.1-25.922-6.179-39.339-6.179-54.524 0-101.175 34.316-119.514 82.48l-4.896-2.406c-4.258-2.093-9.288-1.986-13.453.283-.586.319-1.137.684-1.667 1.074v-26.902c25.027-19.534 40.481-49.88 40.481-82.761v-1.98c18.203-.907 32.734-16 32.734-34.425 0-12.4-6.584-23.288-16.438-29.362l3.302-40.873c2.54-31.444-8.271-62.777-29.662-85.965-21.388-23.187-51.749-36.485-83.295-36.485h-6.635c-32.791 0-63.952 14.194-85.493 38.943-2.72 3.124-2.392 7.862.733 10.581s7.863 2.392 10.581-.733c18.692-21.475 45.73-33.791 74.18-33.791h6.635c27.772 0 53.439 11.243 72.271 31.656 18.832 20.415 27.972 46.903 25.736 74.586l-3 37.142c-.545-.053-1.094-.096-1.647-.124v-3.996c0-3.229-1.144-6.369-3.221-8.841-12.831-15.272-21.311-33.752-24.521-53.44-.006-.036-.013-.075-.02-.115-.673-3.881-3.54-7.07-7.331-8.141-40.591-11.468-81.817-11.468-122.533-.001-3.828 1.077-6.716 4.312-7.357 8.239l-.037.226c-3.189 19.563-11.587 37.944-24.304 53.181l-.063.076c-2.058 2.467-3.191 5.594-3.191 8.805v4.004c-.814.037-1.619.107-2.418.2l-3.006-37.214c-1.307-16.176 1.254-31.875 7.611-46.662 1.636-3.806-.123-8.217-3.929-9.853-3.808-1.637-8.217.123-9.853 3.928-7.229 16.816-10.266 35.418-8.781 53.794l3.333 41.256c-9.52 6.141-15.841 16.832-15.841 28.979 0 18.475 14.611 33.597 32.884 34.428v2.276c0 8.907 1.148 17.824 3.414 26.502 1.047 4.007 5.146 6.408 9.151 5.362 4.008-1.046 6.408-5.144 5.362-9.151-1.942-7.442-2.928-15.083-2.928-22.713v-74.682c13.701-16.504 22.958-36.266 26.878-57.328 36.13-9.659 72.659-9.661 108.676-.002 3.962 21.086 13.266 40.847 27.023 57.344v74.37c0 37.99-24.055 72.048-59.854 84.749l-.744.263c-13.702 4.861-28.784 4.831-42.469-.087-18.23-6.552-33.564-18.544-44.346-34.681-2.302-3.444-6.96-4.37-10.402-2.07-3.444 2.301-4.371 6.958-2.07 10.403 6.331 9.476 14.012 17.724 22.79 24.558v25.269c-4.088-2.069-8.933-2.125-13.06-.097l-36.709 18.037c-4.343 2.134-7.271 6.198-8.001 10.835-45.632 18.762-75.101 62.715-75.101 112.079v26.949c0 4.142 3.357 7.5 7.5 7.5s7.5-3.358 7.5-7.5v-26.949c0-41.401 23.668-78.445 60.758-95.96l3.701 59.177c.205 3.279 2.521 6.042 5.713 6.819l15.668 3.812 12.083 54.904c.771 3.502 3.874 5.89 7.318 5.89.533 0 1.076-.057 1.619-.177 4.045-.89 6.603-4.892 5.712-8.937l-13.088-59.474c-.616-2.797-2.771-4.999-5.553-5.676l-14.847-3.612-4.147-66.327 36.028-17.703 18.182 155.084c.483 4.114 4.22 7.054 8.322 6.576 4.114-.482 7.059-4.208 6.576-8.323l-12.23-104.317c13.42 7.119 28.153 10.695 42.893 10.695 14.741 0 29.473-3.582 42.895-10.698l-12.231 104.321c-.482 4.114 2.462 7.84 6.576 8.322.297.035.591.052.883.052 3.751 0 6.991-2.81 7.439-6.627l18.182-155.084 6.506 3.197c-2.462 9.891-3.778 20.23-3.778 30.872 0 19.466 4.381 37.925 12.196 54.455-1.726 1.047-2.994 2.758-3.442 4.793l-13.09 59.474c-.891 4.045 1.667 8.046 5.712 8.937.543.12 1.085.177 1.619.177 3.444 0 6.547-2.387 7.317-5.889l11.228-51.01c22.953 34.281 62.03 56.898 106.294 56.898 70.487 0 127.833-57.346 127.833-127.833.002-43.244-21.621-83.236-57.841-106.978zm-379.5-85.493c0-10.2 7.889-18.577 17.884-19.388v38.777c-9.995-.812-17.884-9.19-17.884-19.389zm228.195 0c0 10.149-7.81 18.499-17.734 19.381v-38.762c9.924.881 17.734 9.231 17.734 19.381zm-158.114 188.412-3.019-25.753.321-.131c3.635-1.483 5.983-4.978 5.983-8.903v-24.379c4.465 2.377 9.118 4.46 13.956 6.199 8.52 3.062 17.475 4.593 26.432 4.593 8.847 0 17.696-1.495 26.12-4.483l.744-.263c4.993-1.771 9.784-3.909 14.361-6.357v24.691c0 3.924 2.347 7.418 5.982 8.903l2.289.934-2.925 24.95c-26.98 19.583-63.265 19.582-90.244-.001z"/><path d="m397.107 417.971c31.913 0 57.877-25.964 57.877-57.878s-25.964-57.877-57.877-57.877c-31.914 0-57.878 25.964-57.878 57.877 0 16.962 7.334 32.242 18.998 42.838l-20.135 28.993-12.127-8.422c-3.403-2.363-8.076-1.519-10.438 1.882-2.362 3.402-1.521 8.075 1.882 10.438l12.127 8.422-8.384 12.073c-2.362 3.402-1.521 8.075 1.882 10.438 1.305.906 2.796 1.34 4.271 1.34 2.375 0 4.71-1.125 6.167-3.223l8.384-12.073 12.127 8.421c1.305.906 2.796 1.34 4.271 1.34 2.375 0 4.71-1.125 6.167-3.223 2.362-3.402 1.521-8.075-1.882-10.438l-12.127-8.422 20.133-28.99c7.962 4.134 16.99 6.484 26.562 6.484zm-42.878-57.878c0-23.643 19.235-42.877 42.878-42.877s42.877 19.235 42.877 42.877c0 23.643-19.234 42.878-42.877 42.878s-42.878-19.235-42.878-42.878z"/></g></svg>