<svg id="Capa_1" enable-background="new 0 0 511.849 511.849" height="512" viewBox="0 0 511.849 511.849" width="512" xmlns="http://www.w3.org/2000/svg"><g><path d="m44.696 391.776c-2.979-2.88-7.727-2.799-10.605.178-21.984 22.737-34.091 52.66-34.091 84.257v26.949c0 4.142 3.358 7.5 7.5 7.5s7.5-3.358 7.5-7.5v-26.949c0-27.686 10.609-53.905 29.874-73.83 2.879-2.978 2.799-7.726-.178-10.605z"/><path d="m120.246 445.613h-61.777c-7.015 0-12.723 5.708-12.723 12.723v23.038c0 7.015 5.708 12.723 12.723 12.723h61.777c7.015 0 12.723-5.708 12.723-12.723v-23.038c0-7.015-5.708-12.723-12.723-12.723zm-2.277 33.483h-57.223v-18.483h57.223z"/><path d="m466.406 285.285c-3.167-2.671-7.897-2.271-10.568.895-2.672 3.166-2.271 7.897.895 10.569 25.494 21.514 40.116 52.957 40.116 86.269 0 62.217-50.617 112.833-112.834 112.833s-112.833-50.617-112.833-112.833 50.616-112.833 112.833-112.833c16.563 0 32.526 3.512 47.447 10.438 3.757 1.743 8.216.112 9.961-3.645 1.744-3.757.112-8.216-3.645-9.96-16.915-7.852-35.004-11.833-53.764-11.833-58.127 0-107.311 39-122.775 92.206l-16.754-6.836v-31.298c24.687-19.548 39.907-49.676 39.907-82.303v-3.803c18.003-1.12 32.309-16.114 32.309-34.394 0-5.117-1.129-9.973-3.138-14.344l.006-37.134c3.699-12.858 3.116-26.751-1.667-39.257l-1.631-4.264-.925-16.974c-1.232-22.595-15.287-42.748-35.961-51.763l-1.082-1.058c-12.677-12.391-30.069-18.527-47.713-16.824l-7.983.769-4.871-2.086c-15.019-6.432-32.247-6.432-47.267 0l-4.87 2.086-7.983-.769c-17.644-1.698-35.035 4.433-47.712 16.824l-1.083 1.058c-2.375 1.037-4.709 2.243-6.956 3.593-3.549 2.135-4.696 6.743-2.562 10.292 2.135 3.55 6.743 4.697 10.292 2.562 2.021-1.215 4.13-2.272 6.27-3.14.903-.367 1.726-.905 2.422-1.586l2.1-2.053c9.509-9.294 22.548-13.896 35.79-12.62l9.892.953c1.249.122 2.515-.075 3.672-.571l6.632-2.841c11.267-4.825 24.19-4.825 35.456 0l6.633 2.841c1.156.496 2.42.694 3.672.571l9.892-.953c13.237-1.27 26.282 3.326 35.79 12.619l2.1 2.053c.697.681 1.52 1.22 2.423 1.587 16.081 6.526 27.083 21.941 28.027 39.271l.989 18.147c.043.777.206 1.544.484 2.271l2.051 5.362c3.729 9.751 4.088 20.617 1.01 30.595-.221.716-.333 1.46-.333 2.21l-.003 22.227c-4.266-2.305-9.071-3.731-14.172-4.049v-18.81c0-6.026-2.961-11.667-7.921-15.089-4.959-3.422-11.285-4.189-16.918-2.05-8.838 3.355-18.745 2.128-26.498-3.281l-15.071-10.515c-2.942-2.053-6.928-1.734-9.507.761-11.145 10.783-28.604 10.783-39.749 0-2.58-2.496-6.564-2.813-9.507-.761l-15.259 10.646c-7.659 5.345-17.465 6.608-26.231 3.38l-1.249-.46c-5.62-2.07-11.909-1.26-16.822 2.167-4.913 3.426-7.846 9.047-7.846 15.037v18.976c-5.015.312-9.742 1.699-13.954 3.936v-19.639c0-1.129-.255-2.244-.746-3.26l-1.296-2.685c-5.199-10.771-3.871-23.331 3.465-32.777.937-1.205 1.482-2.668 1.565-4.192l.989-18.147c.292-5.358 1.522-10.567 3.657-15.482 1.65-3.799-.092-8.217-3.891-9.867-3.798-1.649-8.216.092-9.867 3.891-2.847 6.555-4.488 13.5-4.877 20.642l-.868 15.916c-9.571 13.723-11.021 31.334-3.683 46.537l.55 1.14v33.558c-2.149 4.493-3.355 9.519-3.355 14.823 0 18.281 14.306 33.275 32.309 34.394v4.102c0 33.096 15.693 63.688 41.057 83.215v30.087l-57.459 23.444c-4.48 1.828-8.958 3.986-13.309 6.415-3.617 2.019-4.913 6.587-2.894 10.204 1.373 2.46 3.925 3.846 6.556 3.846 1.237 0 2.492-.307 3.648-.953 3.821-2.133 7.746-4.025 11.665-5.624l42.448-17.319 58.19 145.566c1.139 2.849 3.897 4.716 6.964 4.716s5.826-1.868 6.964-4.716l58.189-145.566 4.05 1.652c-1.113 6.771-1.701 13.716-1.701 20.797 0 70.488 57.346 127.833 127.833 127.833 70.488 0 127.834-57.346 127.834-127.833.002-37.739-16.562-73.361-45.441-97.732zm-391.9-96.529c0-10.004 7.588-18.263 17.309-19.342v38.684c-9.721-1.079-17.309-9.337-17.309-19.342zm227.195 0c0 10.004-7.587 18.262-17.309 19.342v-38.683c9.722 1.079 17.309 9.337 17.309 19.341zm-194.886 38.496v-91.866c0-1.513.894-2.362 1.426-2.734.375-.262 1.035-.609 1.889-.609.358 0 .75.061 1.17.216l1.249.46c13.366 4.922 28.317 2.995 39.998-5.155l10.56-7.367c15.229 11.059 35.767 11.059 50.995 0l10.372 7.236c11.822 8.248 26.925 10.12 40.404 5.003 1.425-.542 2.538.002 3.075.373.538.371 1.44 1.221 1.44 2.743v91.401c0 37.989-24.056 72.047-59.86 84.75l-.738.262c-13.703 4.861-28.785 4.831-42.468-.087-35.597-12.793-59.512-46.802-59.512-84.626zm54.438 98.742c8.519 3.062 17.472 4.592 26.43 4.592 8.848 0 17.7-1.495 26.128-4.485l.737-.262c5.201-1.845 10.189-4.077 14.937-6.656v24.636l-30.288 26.03c-6.197 5.326-15.511 5.289-21.667-.084l-29.659-25.892v-23.797c4.282 2.257 8.741 4.25 13.382 5.918zm27.426 157.152-51.265-128.244.194-.079 30.059 26.242c5.901 5.152 13.323 7.729 20.749 7.729 7.341 0 14.686-2.522 20.559-7.569l30.738-26.417.231.094z"/><path d="m386.138 480.366c28.162 0 51.074-22.912 51.074-51.074 0-7.95-1.844-15.677-5.306-22.656 2.653-1.156 4.509-3.798 4.509-6.876 0-4.142-3.357-7.5-7.5-7.5h-9.069v-12.038c0-5.137 1.63-10.043 4.589-13.814 6.781-8.639 10.365-19.021 10.365-30.023 0-13.015-5.073-25.247-14.285-34.441-9.19-9.173-21.394-14.22-34.376-14.22-.031 0-.063 0-.095 0-25.946.049-47.255 20.365-48.509 46.249-.56 11.524 2.98 22.889 9.968 32.001 3.223 4.204 4.927 9.026 4.927 13.948v12.34h-9.068c-4.143 0-7.5 3.358-7.5 7.5 0 3.08 1.858 5.723 4.512 6.878-3.465 6.977-5.309 14.704-5.309 22.654-.001 28.16 22.911 51.072 51.073 51.072zm0-15c-19.891 0-36.073-16.183-36.073-36.074 0-8.028 2.653-15.738 7.521-22.032h2.344 52.416 2.333c4.871 6.295 7.533 14.002 7.533 22.032 0 19.891-16.183 36.074-36.074 36.074zm-26.732-108.521c-4.83-6.298-7.276-14.163-6.889-22.146.853-17.597 15.905-31.941 33.555-31.975h.065c8.98 0 17.424 3.492 23.78 9.836 6.372 6.361 9.882 14.822 9.882 23.825 0 7.611-2.478 14.791-7.165 20.762-5.022 6.4-7.789 14.595-7.789 23.075v12.038h-37.415v-12.34c0-8.25-2.775-16.23-8.024-23.075z"/><path d="m386.138 407.891c-11.8 0-21.4 9.601-21.4 21.401s9.601 21.401 21.4 21.401c11.801 0 21.401-9.601 21.401-21.401s-9.601-21.401-21.401-21.401zm0 27.802c-3.529 0-6.4-2.872-6.4-6.401 0-3.53 2.871-6.401 6.4-6.401s6.401 2.872 6.401 6.401c0 3.53-2.872 6.401-6.401 6.401z"/></g></svg>