<svg id="Capa_1" enable-background="new 0 0 512.622 512.622" height="512" viewBox="0 0 512.622 512.622" width="512" xmlns="http://www.w3.org/2000/svg"><g><path d="m18.337 429.783c-3.858-1.503-8.207.409-9.709 4.27-5.469 14.052-8.241 28.832-8.241 43.929v26.949c0 4.142 3.358 7.5 7.5 7.5s7.5-3.358 7.5-7.5v-26.949c0-13.229 2.429-26.178 7.22-38.489 1.502-3.861-.41-8.208-4.27-9.71z"/><path d="m460.33 281.946c-3.331-2.464-8.027-1.759-10.489 1.571-2.463 3.33-1.759 8.027 1.571 10.489 28.693 21.217 45.823 55.155 45.823 90.782 0 62.217-50.617 112.833-112.833 112.833s-112.833-50.617-112.833-112.833 50.617-112.833 112.833-112.833c14.047 0 27.76 2.554 40.757 7.59 3.863 1.496 8.207-.421 9.703-4.283s-.421-8.207-4.283-9.703c-14.732-5.709-30.269-8.604-46.177-8.604-55.928 0-103.576 36.104-120.876 86.228l-8.542-3.117c-3.445-1.255-7.088-.89-10.111.687v-29.726c24.687-19.548 39.907-49.676 39.907-82.303v-21.543h1.604c14.529 0 26.35-11.82 26.35-26.35v-10.033c0-7.688-3.31-14.615-8.579-19.437v-94.828c0-13.036-4.553-25.768-12.819-35.848-10.781-13.145-26.714-20.685-43.715-20.685h-77.753c-4.142 0-7.5 3.358-7.5 7.5s3.358 7.5 7.5 7.5h77.753c12.49 0 24.196 5.539 32.115 15.197 6.073 7.406 9.418 16.759 9.418 26.336v6.567l-30.276 19.035-21.247-6.577c-3.883-1.201-7.913-1.811-11.976-1.811-10.31 0-20.137 3.879-27.668 10.921-5.325 4.98-13.668 4.98-18.994 0-7.531-7.042-17.357-10.921-27.667-10.921-4.063 0-8.093.609-11.976 1.811l-20.63 6.385-30.893-18.903v-6.507c0-9.577 3.345-18.931 9.418-26.336 7.919-9.658 19.625-15.197 32.115-15.197h8.545c4.142 0 7.5-3.358 7.5-7.5s-3.358-7.5-7.5-7.5h-8.545c-17.001 0-32.934 7.54-43.714 20.685-8.267 10.081-12.819 22.812-12.819 35.848v94.829c-5.269 4.821-8.579 11.749-8.579 19.437v10.033c0 14.529 11.82 26.35 26.35 26.35h1.604v21.842c0 33.096 15.693 63.688 41.057 83.215v28.515c-3.023-1.577-6.667-1.943-10.112-.687l-35.644 13.005c-4.813 1.756-8.025 6.261-8.235 11.282l-3.471 1.416c-19.528 7.967-36.713 20.96-49.697 37.574-2.551 3.264-1.973 7.977 1.291 10.527 1.371 1.072 2.998 1.591 4.613 1.591 2.229 0 4.436-.99 5.915-2.882 11.163-14.283 25.875-25.502 42.589-32.513l3.627 42.157c.532 6.184 5.614 10.847 11.821 10.847h16.962l-1.356 17.74c-.317 4.134 1.495 8.058 4.846 10.498l68.244 49.686c1.317.958 2.866 1.437 4.415 1.437 1.442 0 2.874-.437 4.126-1.265.002.008.003.017.005.025l.295-.215c.03-.022.064-.037.094-.059.02-.015.035-.033.054-.048l68.083-49.559c3.351-2.439 5.164-6.363 4.848-10.497l-1.356-17.741h.831c19.088 46.621 64.945 79.551 118.357 79.551 70.488 0 127.833-57.346 127.833-127.833-.002-40.366-19.405-78.812-51.907-102.845zm-162.597-101.114c0 6.258-5.091 11.35-11.35 11.35h-1.604v-32.732h1.604c6.258 0 11.35 5.091 11.35 11.35zm-29.95-86.577 21.371-13.437v63.777c-.911-.096-1.835-.146-2.771-.146h-3.613c-1.447-3.066-3.627-5.782-6.404-7.844l-4.28-3.178c-2.695-2.001-4.304-5.2-4.304-8.556v-30.616zm-177.186 97.926c-6.258 0-11.35-5.091-11.35-11.35v-10.033c0-6.258 5.091-11.35 11.35-11.35h1.604v32.732h-1.604zm15.063-58.896-4.587 3.216c-2.934 2.058-5.235 4.811-6.761 7.947h-3.714c-.936 0-1.86.051-2.771.146v-63.968l22.371 13.689v30.246c0 3.47-1.697 6.731-4.538 8.724zm1.542 95.738v-75.465c0-1.899.928-3.685 2.483-4.775l4.587-3.216c6.841-4.797 10.926-12.65 10.926-21.006v-28.92l18.586-5.752c2.445-.757 4.982-1.141 7.542-1.141 6.492 0 12.68 2.442 17.422 6.877 5.536 5.177 12.638 7.765 19.743 7.765 7.103 0 14.208-2.589 19.742-7.765 4.743-4.435 10.93-6.877 17.422-6.877 2.559 0 5.096.384 7.542 1.14l19.586 6.062v28.921c0 8.081 3.874 15.781 10.361 20.599l4.28 3.178c1.475 1.095 2.355 2.845 2.355 4.682v75.395c0 37.99-24.055 72.047-59.86 84.75l-.738.262c-13.703 4.861-28.785 4.831-42.468-.087-35.596-12.795-59.511-46.803-59.511-84.627zm54.438 98.742c8.519 3.061 17.472 4.592 26.43 4.592 8.848 0 17.7-1.495 26.128-4.485l.737-.262c5.201-1.845 10.189-4.077 14.937-6.656v22.071l-3.985 4.344c-9.578 10.438-22.654 16.188-36.822 16.188-14.167 0-27.244-5.749-36.821-16.188l-3.985-4.343v-21.179c4.28 2.257 8.74 4.25 13.381 5.918zm-34.99 122.446 1.481-19.372c.25-3.284-.89-6.552-3.128-8.968-2.238-2.415-5.41-3.8-8.703-3.8h-17.469l-4.435-51.547 31.608-11.533 47.503 129.335zm17.287-89.903c12.058 11.636 28.287 18.248 45.128 18.248 16.842 0 33.07-6.612 45.129-18.248l-45.128 122.869zm109.19 61.564c-2.238 2.416-3.378 5.685-3.126 8.967l1.48 19.372-46.858 34.115 47.503-129.335 7.347 2.681c-1.896 8.744-2.904 17.814-2.904 27.117 0 11.526 1.542 22.697 4.416 33.327-2.986.215-5.813 1.548-7.858 3.756z"/><path d="m238.688 266.829c4.142 0 7.5-3.358 7.5-7.5 0-19.345-15.738-35.083-35.082-35.083h-9.744c-4.648 0-8.92 1.617-12.299 4.31-3.377-2.694-7.647-4.31-12.294-4.31h-9.744c-19.345 0-35.083 15.738-35.083 35.083 0 4.142 3.358 7.5 7.5 7.5zm-42.123-22.786c0-2.645 2.152-4.797 4.796-4.797h9.744c8.423 0 15.652 5.213 18.629 12.583h-33.17v-7.786zm-29.54-4.797h9.744c2.645 0 4.797 2.152 4.797 4.797v7.786h-33.17c2.977-7.37 10.206-12.583 18.629-12.583z"/><path d="m420.906 313.925v-11.352c0-4.142-3.358-7.5-7.5-7.5s-7.5 3.358-7.5 7.5v11.352c-4.805.977-9.276 2.877-13.228 5.5l-8.042-8.042c-2.929-2.929-7.678-2.929-10.606 0-2.929 2.929-2.929 7.678 0 10.606l8.042 8.042c-2.623 3.952-4.523 8.424-5.5 13.228h-11.352c-4.142 0-7.5 3.358-7.5 7.5s3.358 7.5 7.5 7.5h11.352c.977 4.805 2.877 9.276 5.5 13.229l-8.042 8.042c-2.929 2.929-2.929 7.678 0 10.606 1.464 1.465 3.384 2.197 5.303 2.197s3.839-.732 5.303-2.197l8.042-8.042c3.952 2.623 8.424 4.523 13.228 5.5v11.353c0 4.142 3.358 7.5 7.5 7.5s7.5-3.358 7.5-7.5v-11.353c4.805-.977 9.276-2.877 13.228-5.5l8.042 8.042c1.464 1.464 3.384 2.197 5.303 2.197s3.839-.732 5.303-2.197c2.929-2.929 2.929-7.678 0-10.606l-8.042-8.042c2.623-3.952 4.523-8.424 5.5-13.228h11.353c4.142 0 7.5-3.358 7.5-7.5s-3.358-7.5-7.5-7.5h-11.353c-.977-4.805-2.877-9.276-5.5-13.228l8.042-8.042c2.929-2.929 2.929-7.677 0-10.606-2.928-2.929-7.677-2.929-10.606 0l-8.042 8.042c-3.952-2.625-8.424-4.525-13.228-5.501zm-7.5 59.422c-12.455 0-22.588-10.133-22.588-22.588s10.133-22.588 22.588-22.588 22.588 10.133 22.588 22.588-10.133 22.588-22.588 22.588z"/><path d="m353.842 400.345c4.142 0 7.5-3.358 7.5-7.5s-3.358-7.5-7.5-7.5h-5.297c-.563-1.942-1.334-3.795-2.294-5.531l3.749-3.748c2.929-2.929 2.929-7.677 0-10.606-2.928-2.929-7.677-2.929-10.606 0l-3.749 3.749c-1.736-.961-3.589-1.732-5.53-2.294v-5.297c0-4.142-3.358-7.5-7.5-7.5s-7.5 3.358-7.5 7.5v5.297c-1.941.563-3.794 1.333-5.53 2.294l-3.749-3.749c-2.929-2.93-7.678-2.929-10.606 0-2.929 2.929-2.929 7.678 0 10.606l3.749 3.748c-.961 1.736-1.732 3.589-2.294 5.531h-5.297c-4.142 0-7.5 3.358-7.5 7.5s3.358 7.5 7.5 7.5h5.297c.563 1.941 1.334 3.794 2.294 5.53l-3.748 3.748c-2.929 2.929-2.929 7.677 0 10.606 1.464 1.465 3.384 2.197 5.303 2.197s3.839-.732 5.303-2.197l3.749-3.748c1.736.961 3.589 1.732 5.53 2.294v5.297c0 4.142 3.358 7.5 7.5 7.5s7.5-3.358 7.5-7.5v-5.297c1.942-.563 3.795-1.333 5.53-2.294l3.749 3.748c1.464 1.465 3.384 2.197 5.303 2.197s3.839-.732 5.303-2.197c2.929-2.929 2.929-7.678 0-10.606l-3.748-3.748c.961-1.736 1.732-3.589 2.294-5.53zm-31.229 4.498c-6.616 0-11.999-5.382-11.999-11.999s5.383-11.999 11.999-11.999 11.999 5.383 11.999 11.999-5.383 11.999-11.999 11.999z"/><path d="m410.235 451.936c4.142 0 7.5-3.358 7.5-7.5s-3.358-7.5-7.5-7.5h-2.184c-.162-.429-.333-.854-.522-1.269l1.542-1.542c2.929-2.929 2.929-7.678 0-10.606-2.929-2.929-7.678-2.929-10.606 0l-1.542 1.542c-.416-.189-.84-.36-1.269-.522v-2.184c0-4.142-3.358-7.5-7.5-7.5s-7.5 3.358-7.5 7.5v2.184c-.429.163-.853.333-1.269.522l-1.542-1.542c-2.93-2.929-7.678-2.928-10.607 0-2.929 2.929-2.928 7.678 0 10.607l1.542 1.542c-.189.416-.36.839-.522 1.269h-2.184c-4.142 0-7.5 3.358-7.5 7.5s3.358 7.5 7.5 7.5h2.184c.162.429.333.853.522 1.269l-1.542 1.542c-2.929 2.929-2.929 7.678 0 10.607 1.465 1.464 3.384 2.197 5.304 2.197 1.919 0 3.839-.732 5.303-2.196l1.543-1.542c.416.189.839.36 1.268.522v2.184c0 4.142 3.358 7.5 7.5 7.5s7.5-3.358 7.5-7.5v-2.184c.429-.162.853-.333 1.269-.522l1.542 1.542c1.464 1.464 3.384 2.197 5.303 2.197s3.839-.732 5.303-2.197c2.929-2.929 2.929-7.678 0-10.606l-1.542-1.542c.189-.416.36-.84.522-1.269h2.184zm-22.082-1.213c-3.467 0-6.288-2.821-6.288-6.288s2.821-6.288 6.288-6.288 6.288 2.821 6.288 6.288-2.821 6.288-6.288 6.288z"/></g></svg>