<svg id="Capa_1" enable-background="new 0 0 512.528 512.528" height="512" viewBox="0 0 512.528 512.528" width="512" xmlns="http://www.w3.org/2000/svg"><g><path d="m32.109 406.379c-3.403-2.363-8.076-1.521-10.438 1.881-14.177 20.411-21.671 44.315-21.671 69.127v26.949c0 4.142 3.357 7.5 7.5 7.5s7.5-3.358 7.5-7.5v-26.949c0-21.738 6.567-42.683 18.991-60.57 2.363-3.402 1.521-8.075-1.882-10.438z"/><path d="m447.656 272.924c-3.603-2.042-8.181-.779-10.224 2.825s-.778 8.181 2.825 10.224c35.326 20.029 57.271 57.665 57.271 98.221 0 62.217-50.616 112.833-112.833 112.833s-112.834-50.617-112.834-112.833 50.617-112.833 112.834-112.833c9.383 0 18.72 1.158 27.752 3.442 4.014 1.016 8.095-1.416 9.11-5.433 1.015-4.016-1.417-8.094-5.433-9.109-10.233-2.588-20.809-3.9-31.43-3.9-58.218 0-107.467 39.121-122.85 92.453l-17.36-7.083v-29.141c24.937-17.867 40.496-47 40.496-78.685v-9.327c18.148-.966 32.615-16.033 32.615-34.417 0-8.79-3.312-16.817-8.746-22.912l1.514-70.095c.359-15.099-2.977-30.258-9.646-43.84-1.826-3.717-6.319-5.252-10.038-3.426s-5.252 6.32-3.427 10.038c5.61 11.424 8.417 24.174 8.114 36.876l-1.31 60.676c-2.877-.965-5.919-1.567-9.076-1.735v-9.1c0-6.058-2.175-11.924-6.124-16.519-7.862-9.147-19.289-14.393-31.351-14.393h-54.515c-11.247 0-22.007-4.187-30.295-11.789l-26.249-24.073c-3.688-3.386-9.306-3.441-13.06-.13l-6.244 5.504c-15.722 13.858-24.738 33.826-24.738 54.785v15.714c-2.267.121-4.476.462-6.606 1.002l-2.444-62.394c-.906-22.486 15.969-41.346 38.417-42.936l12.397-.878c3.484-.247 6.869-1.389 9.789-3.302l28.583-18.721c30.451-19.946 70.418-16.691 97.189 7.917 3.048 2.802 7.793 2.603 10.597-.447 2.804-3.049 2.604-7.794-.446-10.597-31.833-29.261-79.354-33.135-115.559-9.421l-28.584 18.721c-.784.514-1.694.82-2.631.887l-12.396.878c-14.698 1.041-28.204 7.662-38.029 18.643s-14.909 25.139-14.316 39.853l2.731 69.707c-6.943 6.31-11.308 15.408-11.308 25.507 0 18.385 14.469 33.452 32.616 34.417v3.85c0 32.835 15.455 63.198 40.468 82.743v16.751c-14.191 2.689-25.762 12.853-30.453 26.233l-27.01 11.02c-10.688 4.361-20.704 10.237-29.769 17.467-3.238 2.583-3.77 7.301-1.187 10.54 1.48 1.857 3.664 2.824 5.868 2.824 1.64 0 3.29-.536 4.672-1.637 7.944-6.336 16.72-11.486 26.081-15.305l19.085-7.787v47.105c-13.638 3.369-23.781 15.703-23.781 30.366 0 17.249 14.032 31.281 31.281 31.281s31.281-14.033 31.281-31.281c0-14.664-10.144-26.997-23.781-30.366v-50.961c0-.779.041-1.548.11-2.309l20.547-8.383 43.26 75.345c1.954 3.4 5.604 5.514 9.524 5.516h.007c3.918 0 7.567-2.108 9.524-5.505l43.4-75.358 16.987 6.931c-1.085 6.689-1.658 13.547-1.658 20.537 0 70.488 57.346 127.833 127.834 127.833 70.487 0 127.833-57.346 127.833-127.833.001-45.947-24.856-88.583-64.871-111.271zm-145.059-82.763c0 10.11-7.747 18.438-17.615 19.375v-38.75c9.867.937 17.615 9.266 17.615 19.375zm-178.656 258.589c0 8.978-7.304 16.281-16.281 16.281s-16.281-7.304-16.281-16.281 7.304-16.281 16.281-16.281 16.281 7.303 16.281 16.281zm-49.153-258.589c0-10.11 7.747-18.438 17.616-19.375v38.75c-9.869-.937-17.616-9.265-17.616-19.375zm32.616 38.268v-88.399c0-16.654 7.165-32.521 19.656-43.532l2.714-2.393 22.782 20.894c11.063 10.146 25.422 15.734 40.434 15.734h54.517c7.686 0 14.966 3.342 19.976 9.17 1.611 1.875 2.499 4.269 2.499 6.741v87.262c0 34.535-21.868 65.496-54.416 77.042-15.812 5.609-32.727 6.301-48.94 2.001-35.435-12.873-59.222-46.8-59.222-84.52zm81.209 190.129-40.949-71.319c.123-.616.208-1.243.208-1.889v-24.406c4.458 2.388 9.117 4.483 13.97 6.227.193.069.39.131.588.184 8.387 2.257 16.933 3.381 25.465 3.381 11.054 0 22.082-1.889 32.688-5.651 3.053-1.083 6.016-2.326 8.903-3.688v23.953c0 .643.085 1.268.206 1.881z"/><path d="m377.195 476.301c0 4.142 3.357 7.5 7.5 7.5s7.5-3.358 7.5-7.5v-25.908-19.162c0-6.542 2.673-12.657 7.237-17.061 2.355 3.905 5.384 7.412 8.99 10.311 7.166 5.759 15.868 8.607 24.552 8.607 9.77 0 19.516-3.604 27.02-10.723 25.023-23.741 28.287-62.454 7.593-90.049l-6.608-8.812c-9.517-12.69-27.355-15.805-40.607-7.09-6.838 4.495-11.459 11.396-13.014 19.429-1.546 7.989.142 16.069 4.75 22.769l-8.082 8.854c-7.271 7.967-10.966 18.705-10.137 29.46.06.773.149 1.541.254 2.306-3.69 2.507-6.87 5.593-9.448 9.106-2.577-3.513-5.758-6.599-9.448-9.107.105-.765.194-1.533.254-2.306.83-10.754-2.864-21.492-10.137-29.46l-8.082-8.854c4.608-6.699 6.296-14.78 4.75-22.769-1.555-8.034-6.176-14.934-13.014-19.43-13.253-8.712-31.092-5.598-40.607 7.091l-6.607 8.812c-20.695 27.596-17.431 66.308 7.593 90.048 7.505 7.12 17.248 10.724 27.019 10.724 8.683 0 17.387-2.849 24.551-8.607 3.607-2.899 6.636-6.406 8.992-10.312 4.565 4.404 7.238 10.519 7.238 17.061v19.162 25.91zm37.91-98.722 8.171-8.953c4.697-5.146 5.202-12.735 1.229-18.458-2.34-3.371-3.2-7.446-2.421-11.475.78-4.03 3.098-7.491 6.527-9.745 6.646-4.37 15.594-2.809 20.367 3.557l6.608 8.811c16.125 21.503 13.581 51.668-5.918 70.167-8.753 8.303-22.444 8.866-31.849 1.307-5.269-4.234-8.456-10.278-8.976-17.017-.519-6.739 1.705-13.201 6.262-18.194zm-54.56 18.194c-.52 6.739-3.708 12.783-8.977 17.017-9.402 7.559-23.095 6.998-31.848-1.307-19.499-18.499-22.043-48.664-5.917-70.167l6.607-8.811c2.949-3.932 7.489-6.031 12.098-6.031 2.852 0 5.729.804 8.27 2.474 3.43 2.255 5.747 5.716 6.527 9.746.779 4.029-.081 8.104-2.421 11.475-3.974 5.722-3.469 13.312 1.229 18.457l8.172 8.954c4.557 4.992 6.78 11.454 6.26 18.193z"/></g></svg>