<svg id="Capa_1" enable-background="new 0 0 513.169 513.169" height="512" viewBox="0 0 513.169 513.169" width="512" xmlns="http://www.w3.org/2000/svg"><g><path d="m45.87 404.972c-3.273-2.537-7.984-1.941-10.522 1.333-16.274 20.994-25.237 47.167-25.237 73.696v25.147c0 4.143 3.358 7.5 7.5 7.5s7.5-3.357 7.5-7.5v-25.147c0-23.219 7.846-46.128 22.092-64.507 2.538-3.273 1.941-7.984-1.333-10.522z"/><path d="m130.916 447.931h-61.777c-7.015 0-12.723 5.707-12.723 12.723v23.038c0 7.016 5.708 12.723 12.723 12.723h61.777c7.015 0 12.723-5.707 12.723-12.723v-23.038c0-7.016-5.708-12.723-12.723-12.723zm-2.277 33.483h-57.223v-18.483h57.223z"/><path d="m457.238 287.284c-3.174-2.656-7.905-2.238-10.565.937-2.659 3.176-2.24 7.906.936 10.565 25.706 21.522 40.449 53.068 40.449 86.55 0 62.217-50.617 112.833-112.833 112.833s-112.833-50.616-112.833-112.833 50.617-112.834 112.833-112.834c16.365 0 32.151 3.429 46.92 10.192 3.768 1.724 8.218.07 9.941-3.696 1.725-3.767.07-8.218-3.696-9.942-16.742-7.666-34.629-11.554-53.165-11.554-16.247 0-31.792 3.053-46.101 8.605 1.451-6.115 2.198-12.397 2.198-18.679v-95.24c0-39.387-14.993-76.746-42.217-105.198-2.864-2.991-7.611-3.099-10.604-.233-2.993 2.863-3.098 7.611-.234 10.604 24.54 25.646 38.055 59.323 38.055 94.827v95.24c0 9.617-2.146 19.235-6.219 27.948-6.477 3.851-12.59 8.252-18.267 13.148-.417-3.91-3.808-6.858-7.787-6.693-4.138.188-7.341 3.693-7.153 7.831l.459 10.153c-13.109 15.928-30.197 27.729-49.727 34.337v-17.227c29.009-19.112 47.294-51.886 47.294-87.656v-83.234c0-11.663-4.018-23.098-11.312-32.196-2.178-2.718-5.553-4.263-9.035-4.114-3.479.141-6.722 1.947-8.672 4.832l-11.52 17.036c-11.098 16.412-29.345 26.394-49.076 26.944l25.911-27.953c2.816-3.038 2.636-7.783-.402-10.599-3.039-2.818-7.784-2.636-10.599.401l-26.221 28.287c-6.964 7.514-16.833 11.822-27.078 11.822h-10.605c4.966-3.913 9.454-8.477 13.304-13.619l20.615-27.535c2.482-3.316 1.807-8.017-1.509-10.499-3.317-2.482-8.016-1.808-10.499 1.509l-20.615 27.535c-10.247 13.687-26.142 22.246-43.104 23.387l18.092-25.373c2.405-3.373 1.621-8.057-1.752-10.461-3.373-2.405-8.056-1.62-10.46 1.752l-25.037 35.113c-1.949 2.73-2.206 6.279-.67 9.263 1.495 2.904 4.417 4.723 7.666 4.819v53.183c0 36.136 18.715 69.277 48.294 88.298v16.284c-19.53-6.609-36.618-18.409-49.727-34.337l.46-10.153c.188-4.138-3.015-7.644-7.153-7.831-4.128-.207-7.645 3.015-7.832 7.153l-.423 9.338-.136-.112c-15.178-12.567-23.883-31.077-23.883-50.782v-95.24c.001-75.645 61.544-137.187 137.189-137.187 26.874 0 52.902 7.776 75.271 22.487 3.46 2.275 8.112 1.315 10.387-2.146 2.276-3.461 1.316-8.111-2.145-10.388-24.823-16.324-53.702-24.953-83.513-24.953-83.916 0-152.188 68.271-152.188 152.188v95.24c0 24.188 10.686 46.909 29.316 62.335l8.525 7.06c1.758 1.455 3.909 2.208 6.091 2.208 1.313 0 2.638-.273 3.894-.829.586-.26 1.122-.589 1.632-.947 14.492 14.87 32.38 25.853 52.418 32.085l-46.75 20.509c-7.74 3.396-15.162 7.643-22.06 12.62-3.359 2.425-4.117 7.112-1.692 10.471 1.466 2.032 3.76 3.112 6.088 3.112 1.521 0 3.056-.462 4.383-1.419 6.04-4.359 12.537-8.076 19.309-11.048l42.347-18.578 39.162 68.205c1.953 3.402 5.602 5.518 9.524 5.52h.007c3.92 0 7.569-2.109 9.524-5.506l39.262-68.174 19.991 8.771c-.34 3.794-.524 7.632-.524 11.513 0 70.487 57.346 127.833 127.833 127.833s127.833-57.346 127.833-127.833c0-37.933-16.701-73.671-45.82-98.052zm-359.893-57.714v-53.48c1.586-.147 3.162-.35 4.728-.599.036 0 .07.005.106.005h44.741c4.749 0 9.436-.671 13.943-1.933h22.725c25.374 0 49.008-12.549 63.222-33.568l8.233-12.177c3.171 5.513 4.879 11.816 4.879 18.217v83.234c0 37.989-24.055 72.048-59.855 84.749l-.742.263c-13.703 4.861-28.785 4.831-42.468-.087-35.597-12.791-59.512-46.799-59.512-84.624zm81.798 190.128-35.274-61.434c1.115-1.326 1.77-3.02 1.77-4.823v-27.581c2.016.872 4.058 1.701 6.144 2.451 8.518 3.062 17.475 4.593 26.431 4.593 8.848 0 17.696-1.494 26.123-4.483l.742-.263c2.57-.912 5.087-1.92 7.549-3.016v28.3c0 1.844.678 3.579 1.841 4.917zm50.303-70.358c9.694-3.015 18.878-7.154 27.426-12.294-2.811 6.863-5.041 14.023-6.629 21.418z"/><path d="m440.746 339.78h4.499v5.148c0 4.143 3.358 7.5 7.5 7.5s7.5-3.357 7.5-7.5v-12.648c0-4.143-3.358-7.5-7.5-7.5h-11.999c-4.142 0-7.5 3.357-7.5 7.5s3.358 7.5 7.5 7.5z"/><path d="m305.205 344.929v-5.148h4.499c4.142 0 7.5-3.357 7.5-7.5s-3.358-7.5-7.5-7.5h-11.999c-4.142 0-7.5 3.357-7.5 7.5v12.648c0 4.143 3.358 7.5 7.5 7.5s7.5-3.358 7.5-7.5z"/><path d="m445.245 425.743v5.147h-4.499c-4.142 0-7.5 3.357-7.5 7.5s3.358 7.5 7.5 7.5h11.999c4.142 0 7.5-3.357 7.5-7.5v-12.647c0-4.143-3.358-7.5-7.5-7.5s-7.5 3.358-7.5 7.5z"/><path d="m297.705 418.243c-4.142 0-7.5 3.357-7.5 7.5v12.647c0 4.143 3.358 7.5 7.5 7.5h11.999c4.142 0 7.5-3.357 7.5-7.5s-3.358-7.5-7.5-7.5h-4.499v-5.147c0-4.142-3.358-7.5-7.5-7.5z"/><path d="m475.516 375.847c0-4.143-3.358-7.5-7.5-7.5h-70.453v-8.542l13.122-10.571c6.314-5.086 10.185-12.646 10.62-20.743.435-8.096-2.604-16.028-8.337-21.762-10.288-10.287-26.531-11.084-37.743-2.392-11.212-8.692-27.454-7.896-37.743 2.393-5.733 5.733-8.772 13.665-8.337 21.762.435 8.096 4.306 15.656 10.619 20.742l13.123 10.571v8.542h-70.454c-4.142 0-7.5 3.357-7.5 7.5s3.358 7.5 7.5 7.5h70.454v25.52l-13.123 10.571c-6.314 5.087-10.185 12.647-10.619 20.743-.435 8.097 2.604 16.028 8.337 21.761v.001c5.578 5.577 12.902 8.364 20.228 8.364 6.189 0 12.381-1.991 17.515-5.973 11.212 8.693 27.453 7.896 37.743-2.392 5.733-5.733 8.772-13.665 8.337-21.761-.435-8.097-4.305-15.657-10.619-20.744l-13.123-10.571v-25.52h70.453c4.142.001 7.5-3.357 7.5-7.499zm-110.424-25.472-15.918-12.823c-3.047-2.454-4.841-5.958-5.051-9.865s1.198-7.584 3.965-10.351c5.305-5.305 13.938-5.306 19.243.001 4.353 4.353 11.435 4.35 15.787-.001 5.304-5.307 13.936-5.307 19.242 0 2.767 2.767 4.175 6.442 3.965 10.351-.209 3.907-2.003 7.411-5.051 9.865l-15.917 12.823c-1.768 1.424-2.795 3.571-2.795 5.841v12.131h-14.676v-12.131c.001-2.27-1.027-4.417-2.794-5.841zm20.266 67.921 15.917 12.823c3.047 2.455 4.841 5.959 5.051 9.866s-1.198 7.583-3.965 10.35c-5.305 5.305-13.937 5.305-19.242 0-4.353-4.352-11.435-4.353-15.788 0-5.304 5.307-13.937 5.305-19.242 0v.001c-2.767-2.768-4.175-6.443-3.965-10.351s2.003-7.411 5.051-9.866l15.918-12.823c1.767-1.424 2.795-3.571 2.795-5.841v-29.108h14.676v29.108c-.001 2.27 1.026 4.417 2.794 5.841z"/></g></svg>