<svg id="Capa_1" enable-background="new 0 0 511.932 511.932" height="512" viewBox="0 0 511.932 511.932" width="512" xmlns="http://www.w3.org/2000/svg"><g><path d="m406.248 413.557c-2.251-3.479-6.896-4.472-10.371-2.223-3.478 2.25-4.473 6.894-2.223 10.371 6.669 10.308 11.375 21.629 13.972 33.462h-29.161c-1.379-2.285-2.895-4.507-4.559-6.648l-1.539-1.979c-2.543-3.27-7.256-3.857-10.524-1.317-3.271 2.542-3.86 7.255-1.317 10.524l1.538 1.979c9.948 12.8 13.412 29.164 9.504 44.896-.999 4.021 1.45 8.089 5.47 9.087.607.151 1.216.224 1.814.224 3.364 0 6.425-2.281 7.272-5.693 3.011-12.121 2.593-24.528-.958-36.071h24.586c.151 2.266.236 4.541.236 6.824v27.439c0 4.143 3.357 7.5 7.5 7.5s7.5-3.357 7.5-7.5v-27.439c.001-22.552-6.48-44.487-18.74-63.436z"/><path d="m372.775 398.332c1.396 1.146 3.08 1.703 4.755 1.703 2.167 0 4.317-.935 5.801-2.741 2.628-3.201 2.164-7.927-1.038-10.556-8.272-6.792-17.413-12.406-27.166-16.686l-5.294-2.323.832-3.102c1.93-7.186-.31-14.739-5.843-19.714l-14.916-13.41c-2.271-2.04-5.202-3.163-8.253-3.163h-17.193v-10.473c28.818-16.442 47.294-47.372 47.294-81.335v-5.194c16.619-3.158 29.226-17.785 29.226-35.309 0-7.865-2.543-15.145-6.846-21.067v-43.446c0-20.742-7.51-40.23-21.221-55.537l16.544-27.264c1.601-2.637 2.027-5.849 1.169-8.812-.857-2.963-2.934-5.45-5.692-6.822l-27.718-13.801c-42.693-21.259-91.273-25.078-136.79-10.757-3.951 1.243-6.146 5.454-4.903 9.405 1.243 3.95 5.451 6.145 9.405 4.903 5.745-1.808 11.544-3.289 17.374-4.469-4.076 6.222-6.452 13.652-6.452 21.631 0 10.666 4.252 20.346 11.133 27.474-16.233 2.744-32.169 7.842-47.291 15.311l-23.171-38.182 19.941-9.929c3.708-1.847 5.217-6.349 3.371-10.057s-6.349-5.216-10.057-3.371l-23.778 11.841c-2.76 1.374-4.835 3.86-5.692 6.821-.858 2.963-.433 6.174 1.167 8.813l17.025 28.055c-13.243 15.188-20.491 34.4-20.491 54.746v41.871c-5.033 6.184-8.055 14.065-8.055 22.643 0 17.524 12.606 32.153 29.225 35.311v5.457c0 6.58.711 13.217 2.113 19.727.873 4.051 4.871 6.624 8.911 5.753 4.05-.873 6.625-4.862 5.753-8.911-1.18-5.474-1.777-11.048-1.777-16.568v-65.67c0-15.427 7.344-30.193 19.646-39.503l21.8-16.494 37.733 20.713c24.879 13.657 53.022 21.359 81.39 22.273l2.009.064v78.352c0 33.218-21.033 62.997-52.339 74.104l-12.06 4.278c-11.25 3.991-23.636 3.966-34.872-.071l-11.271-4.051c-15.951-5.733-29.367-16.229-38.795-30.354-2.301-3.446-6.957-4.373-10.402-2.074-3.445 2.3-4.373 6.957-2.074 10.402 8.416 12.608 19.502 22.788 32.53 29.971v9.604h-15.982c-3.051 0-5.982 1.123-8.257 3.166l-14.911 13.407c-5.534 4.975-7.773 12.528-5.845 19.713l.705 2.629-6.376 2.797c-42.438 18.62-69.861 60.597-69.861 106.94v27.438c0 4.143 3.357 7.5 7.5 7.5s7.5-3.357 7.5-7.5v-27.438c0-2.289.087-4.564.239-6.825h25.792c-3.551 11.544-3.969 23.95-.958 36.071.848 3.412 3.907 5.693 7.272 5.693.599 0 1.207-.072 1.814-.224 4.02-.998 6.469-5.066 5.47-9.087-3.908-15.732-.444-32.097 9.503-44.896l1.539-1.979c2.543-3.27 1.953-7.982-1.317-10.524-3.269-2.543-7.982-1.953-10.524 1.317l-1.54 1.98c-1.664 2.141-3.179 4.363-4.558 6.647h-30.361c6.883-31.35 28.342-58.14 58.517-71.379l4.281-1.878 20.152 75.114c1.902 7.089 6.765 13.024 13.34 16.285 3.57 1.771 7.463 2.662 11.363 2.662 3.282 0 6.568-.631 9.673-1.899l24.796-10.132h2.634v40.49c0 4.143 3.357 7.5 7.5 7.5s7.5-3.357 7.5-7.5v-40.49h2.634l24.796 10.132c3.104 1.269 6.391 1.899 9.673 1.899 3.899 0 7.793-.892 11.363-2.662 6.575-3.261 11.438-9.196 13.34-16.285l20.024-74.639 3.199 1.404c8.495 3.727 16.461 8.62 23.674 14.543zm-21.021-182.481v-39.629c8.26 2.804 14.226 10.609 14.226 19.807s-5.966 17.012-14.226 19.822zm2.657-171.254-23.17 38.183c-15.12-7.468-31.055-12.566-47.287-15.311 6.88-7.128 11.128-16.81 11.128-27.476 0-8.012-2.404-15.465-6.511-21.703 14.403 2.9 28.5 7.714 41.961 14.417zm-74.33-4.603c0 13.573-11.042 24.615-24.615 24.615s-24.616-11.042-24.616-24.615 11.043-24.616 24.616-24.616 24.615 11.043 24.615 24.616zm-135.128 156.035c0-9.196 5.967-16.992 14.225-19.799v39.609c-8.259-2.808-14.225-10.613-14.225-19.81zm190.275-52.905c-26.019-.839-51.834-7.903-74.653-20.43l-37.901-20.805c-5.07-2.788-11.334-2.332-15.948 1.163l-21.953 16.61c-13.189 9.981-21.99 24.781-24.698 40.909-2.446.401-4.812 1.043-7.067 1.912v-30.969c0-15.047 4.841-29.334 13.753-41.132l2.664 4.39c1.815 2.995 5.016 4.671 8.306 4.671 1.536 0 3.091-.365 4.534-1.132 45.839-24.319 100.568-24.319 146.401 0 4.532 2.404 10.174.854 12.842-3.537l3.188-5.254c9.351 11.956 14.439 26.55 14.439 41.994v31.466c-2.343-1.003-4.814-1.762-7.38-2.249v-6.699c0-5.819-4.556-10.524-10.371-10.711zm-23.408 200.217-2.946 6.42-4.413-1.936v-4.484zm-79.409-14.383c7.287 2.619 14.947 3.929 22.61 3.929 7.569 0 15.141-1.278 22.35-3.836l12.06-4.278c.01-.003.019-.008.029-.011v27.963c0 2.977 1.761 5.672 4.487 6.868l8.67 3.803-39.251 85.544h-13.592l-39.453-85.986 7.663-3.362c2.726-1.196 4.486-3.892 4.486-6.868v-27.339zm-24.94 14.383v4.484l-3.406 1.494-2.743-5.979h6.149zm8.496 116.846c-2.849 1.164-5.938 1.052-8.698-.315-2.759-1.368-4.718-3.76-5.516-6.734l-24.79-92.398c-.457-1.702.074-3.492 1.386-4.671l8.714-7.835 47.822 104.224zm120.21-99.447-24.789 92.397c-.798 2.975-2.757 5.366-5.516 6.734-2.761 1.367-5.849 1.479-8.698.315l-18.918-7.73 47.822-104.224 8.715 7.835c1.311 1.18 1.842 2.97 1.384 4.673z"/><path d="m247.966 31.411v1.669h-1.669c-4.143 0-7.5 3.357-7.5 7.5s3.357 7.5 7.5 7.5h1.669v1.669c0 4.143 3.357 7.5 7.5 7.5s7.5-3.357 7.5-7.5v-1.669h1.669c4.143 0 7.5-3.357 7.5-7.5s-3.357-7.5-7.5-7.5h-1.669v-1.669c0-4.143-3.357-7.5-7.5-7.5s-7.5 3.357-7.5 7.5z"/></g></svg>