<svg id="Capa_1" enable-background="new 0 0 512.251 512.251" height="512" viewBox="0 0 512.251 512.251" width="512" xmlns="http://www.w3.org/2000/svg"><g><path d="m359.829 379.621c-.17-1.401-.488-2.791-.978-4.143-1.856-5.123-5.839-9.183-10.925-11.137l-6.001-2.306 28.872-7.268c13.688-3.445 24.633-12.901 30.03-25.943s4.335-27.468-2.915-39.578c-9.052-15.12-13.836-32.427-13.836-50.049v-81.195c0-23.531-6.43-46.33-18.636-66.246l9.244-15.234c5.07-8.355 6.42-18.533 3.702-27.921-2.717-9.388-9.293-17.271-18.042-21.627l-9.411-4.686c-49.931-24.859-106.653-29.078-159.715-11.879-3.94 1.277-6.099 5.507-4.822 9.447 1.277 3.939 5.506 6.1 9.447 4.822 8.217-2.664 16.53-4.761 24.891-6.323-5.654 7.498-9.016 16.816-9.016 26.909 0 12.915 5.511 24.551 14.284 32.733-19.913 3.118-39.468 9.286-57.952 18.544l-16.87-27.8c-2.942-4.85-3.695-10.521-2.118-15.969s5.242-9.842 10.319-12.37l7.928-3.947c3.708-1.847 5.217-6.349 3.371-10.057s-6.348-5.216-10.057-3.371l-7.928 3.947c-8.75 4.356-15.326 12.239-18.042 21.628s-1.367 19.564 3.704 27.92l9.814 16.173c-11.832 19.691-18.065 42.166-18.065 65.306v81.195c0 17.623-4.785 34.93-13.837 50.05l-.109.183c-7.231 12.079-8.307 26.475-2.95 39.494 5.356 13.02 16.25 22.489 29.888 25.982l28.07 7.19-5.843 2.245c-5.087 1.955-9.069 6.015-10.926 11.138-.427 1.177-.716 2.384-.9 3.601-11.589 5.802-22.098 13.371-31.273 22.573-2.925 2.934-2.918 7.682.015 10.606 1.464 1.46 3.38 2.189 5.296 2.189 1.923 0 3.846-.735 5.311-2.204 7.255-7.275 15.472-13.374 24.469-18.231l33.795 60.612c6.527 11.706 18.913 18.794 32.032 18.794 1.972 0 3.963-.16 5.951-.489l17.228-2.851h3.213v33.816c0 4.143 3.358 7.5 7.5 7.5 4.143 0 7.5-3.357 7.5-7.5v-33.814h2.39l17.229 2.851c1.989.329 3.978.489 5.951.489 13.117 0 25.505-7.09 32.031-18.794l33.565-60.2c25.795 14.25 44.321 38.789 51.342 66.952h-24.954c-2.158-4.702-4.869-9.197-8.13-13.393l-1.539-1.979c-2.543-3.27-7.256-3.857-10.524-1.317-3.271 2.542-3.86 7.255-1.317 10.524l1.538 1.979c9.948 12.8 13.412 29.164 9.504 44.896-.999 4.021 1.45 8.089 5.47 9.087.607.151 1.216.224 1.814.224 3.364 0 6.425-2.281 7.272-5.693 2.432-9.791 2.624-19.768.744-29.327h22.71c.334 3.38.515 6.791.515 10.226v17.147c0 4.143 3.357 7.5 7.5 7.5s7.5-3.357 7.5-7.5v-17.147c.001-44.946-25.516-86.519-65.318-106.984zm-96.98 75.459h-12.448l-40.985-84.338 8.728-3.829c2.726-1.196 4.487-3.892 4.487-6.868v-35.283c1.261.511 2.535 1.001 3.823 1.464l3.5 1.258c8.137 2.925 16.689 4.387 25.245 4.387 8.452 0 16.905-1.428 24.955-4.283l4.253-1.51c1.757-.623 3.495-1.299 5.215-2.02v35.988c0 2.977 1.761 5.672 4.487 6.868l9.551 4.19zm106.228-297.077v81.195c0 20.335 5.521 40.306 15.967 57.754 4.787 7.997 5.489 17.524 1.925 26.137s-10.793 14.857-19.833 17.133l-61.339 15.44-1.176-.516v-38.907c6.849-4.323 13.188-9.451 18.806-15.267 2.878-2.979 2.795-7.728-.184-10.605-2.98-2.878-7.728-2.796-10.605.184-9.225 9.551-20.721 16.947-33.248 21.391l-4.253 1.51c-12.94 4.593-27.185 4.563-40.109-.082l-3.5-1.258c-34.208-12.294-57.19-44.976-57.19-81.325v-64.447c31.331-7.057 57.858-27.214 73.051-55.623l8.738-16.338 8.853 16.552c15.003 28.053 41.095 48.085 71.937 55.365v64.203c0 11.931-2.422 23.537-7.198 34.498-1.655 3.797.081 8.217 3.879 9.871 3.799 1.657 8.217-.083 9.871-3.879 5.606-12.862 8.448-26.485 8.448-40.49v-67.44c0-5.186-3.687-9.705-8.767-10.746-27.859-5.715-51.53-23.376-64.943-48.456l-6.748-12.619c24.352 2.002 48.401 8.89 70.656 20.697 4.7 2.496 10.546.886 13.311-3.666l1.089-1.795c8.234 15.845 12.562 33.436 12.562 51.529zm-82.753-112.738c0 16.434-13.369 29.803-29.803 29.803-16.433 0-29.803-13.369-29.803-29.803 0-16.433 13.37-29.802 29.803-29.802 16.434 0 29.803 13.369 29.803 29.802zm67.336-4.861c5.077 2.528 8.742 6.921 10.319 12.369 1.576 5.449.824 11.12-2.118 15.97l-16.869 27.8c-18.481-9.257-38.033-15.425-57.943-18.543 8.77-8.183 14.275-19.822 14.275-32.735 0-10.125-3.391-19.463-9.078-26.971 17.848 3.315 35.333 9.125 52.003 17.424zm-226.578 282.814c-3.538-8.599-2.827-18.105 1.949-26.083l.109-.183c10.445-17.447 15.966-37.418 15.966-57.754v-81.195c0-17.689 4.153-34.922 12.047-50.504l.467.77c1.883 3.102 5.199 4.836 8.609 4.836 1.591 0 3.204-.378 4.7-1.172 22.004-11.675 45.761-18.546 69.832-20.635l-6.601 12.343c-13.479 25.206-37.282 42.894-65.307 48.529l-.707.143c-5.104 1.024-8.81 5.548-8.81 10.755v67.718c0 35.581 18.773 68.154 48.294 86.359v38.001l-1.161.509-59.65-15.279c-9.005-2.306-16.199-8.56-19.737-17.158zm99.565 134.914c-8.981 1.488-17.998-2.857-22.432-10.811l-35.459-63.597c-.732-1.313-.473-2.528-.253-3.135s.799-1.706 2.203-2.246l18.433-7.083c1.85-.711 3.899.098 4.766 1.881l40.665 83.68zm117.849-74.407-35.459 63.597c-4.435 7.952-13.455 12.297-22.432 10.811l-7.924-1.311 40.666-83.68c.866-1.783 2.916-2.591 4.765-1.881l18.434 7.083c1.404.539 1.983 1.639 2.203 2.245.219.608.479 1.822-.253 3.136z"/><path d="m249.021 35.296v3.15h-3.15c-4.142 0-7.5 3.357-7.5 7.5s3.358 7.5 7.5 7.5h3.15v3.149c0 4.143 3.358 7.5 7.5 7.5 4.143 0 7.5-3.357 7.5-7.5v-3.149h3.149c4.143 0 7.5-3.357 7.5-7.5s-3.357-7.5-7.5-7.5h-3.149v-3.15c0-4.143-3.357-7.5-7.5-7.5-4.142 0-7.5 3.358-7.5 7.5z"/><path d="m152.175 444.689c-3.27-2.543-7.981-1.952-10.524 1.317l-1.54 1.98c-3.26 4.195-5.971 8.69-8.129 13.392h-26.791c2.162-8.756 5.434-17.237 9.768-25.182 1.984-3.636.644-8.192-2.992-10.176-3.638-1.983-8.192-.645-10.176 2.992-9.609 17.613-14.688 37.528-14.688 57.592v18.146c0 4.143 3.358 7.5 7.5 7.5s7.5-3.357 7.5-7.5v-18.146c0-3.418.174-6.832.507-10.227h24.54c-1.88 9.559-1.689 19.536.743 29.326.848 3.413 3.908 5.694 7.273 5.694.599 0 1.207-.072 1.814-.223 4.02-.999 6.469-5.067 5.471-9.087-2.537-10.216-1.948-20.691 1.487-30.29.096-.228.181-.46.255-.698 1.844-4.929 4.43-9.622 7.761-13.908l1.539-1.979c2.542-3.268 1.952-7.981-1.318-10.523z"/></g></svg>