<svg id="Capa_1" enable-background="new 0 0 511.112 511.112" height="512" viewBox="0 0 511.112 511.112" width="512" xmlns="http://www.w3.org/2000/svg"><g><path d="m461.65 289.675c-3.032-2.82-7.777-2.649-10.6.383-2.821 3.032-2.65 7.777.383 10.6 22.878 21.286 36 51.4 36 82.622 0 62.217-50.617 112.833-112.834 112.833s-112.833-50.616-112.833-112.833 50.616-112.834 112.833-112.834c18.184 0 36.256 4.432 52.265 12.815 3.667 1.923 8.201.506 10.123-3.164 1.922-3.669.506-8.202-3.164-10.123-18.147-9.505-38.626-14.528-59.224-14.528-60.185 0-110.781 41.811-124.288 97.911l-7.951-3.128c-2.497-.981-5.141-1.177-7.641-.656l-7.037-3.087v-31.614c29.166-16.353 47.898-47.48 47.898-81.679v-17.714c16.813-3 29.62-17.715 29.62-35.377 0-8.041-2.654-15.473-7.132-21.468.034-.198.064-.396.082-.6l2.038-23.029c2.52-28.449-4.653-57.1-20.196-80.673-2.281-3.458-6.932-4.41-10.391-2.133-3.458 2.28-4.413 6.933-2.133 10.391 13.687 20.756 20 46.004 17.778 71.093l-1.209 13.665c-3.265-1.48-6.786-2.485-10.479-2.928-1.873-2.602-4.884-4.326-8.35-4.437l-6.155-.198c-26.018-.839-51.833-7.903-74.653-20.43l-37.903-20.808c-5.071-2.782-11.333-2.326-15.946 1.165l-21.952 16.611c-9.529 7.21-16.75 16.945-21.06 27.869-5.061.22-9.852 1.49-14.163 3.6l-1.249-14.11c-2.755-31.121 7.585-61.992 28.367-84.696 20.063-21.916 47.188-33.986 76.38-33.986h3.627c24.705 0 47.812 8.564 66.82 24.769 3.152 2.686 7.886 2.309 10.573-.843s2.31-7.886-.843-10.573c-21.447-18.284-48.634-28.353-76.55-28.353h-3.627c-33.451 0-64.506 13.8-87.443 38.858-23.618 25.8-35.37 60.845-32.245 96.146l2.038 23.029c.051.572.171 1.119.339 1.643-4.023 5.805-6.389 12.842-6.389 20.424 0 1.28.07 2.544.201 3.791l-4.472 3.562c-20.17 16.068-31.738 40.074-31.738 65.861v6.415c0 4.143 3.357 7.5 7.5 7.5s7.5-3.357 7.5-7.5v-6.415c0-21.193 9.508-40.923 26.084-54.129l.285-.227c5.316 8.591 14.146 14.781 24.47 16.56v17.938c0 10.973 1.938 21.636 5.529 31.6-.24.735-.374 1.517-.374 2.332v16.463c0 27.052-16.953 51.78-42.186 61.534l-22.201 8.578 7.747-17.426c.426-.959.646-1.997.646-3.047v-41.605c0-4.143-3.357-7.5-7.5-7.5s-7.5 3.357-7.5 7.5v40.014l-7.191 16.176c-2.462 5.536-1.354 11.948 2.822 16.336 2.876 3.021 6.782 4.638 10.781 4.638 1.808 0 3.635-.33 5.394-1.011l22.41-8.662c15.311-5.918 28.309-16.201 37.59-29.739 7.93-11.568 12.654-24.813 13.865-38.661 7.533 9.673 16.962 17.89 27.857 24.04v31.47l-6.968 3.057c-2.459-.485-5.051-.276-7.501.687l-19.567 7.698c-3.152 1.24-5.693 3.615-7.152 6.629l-9.478 4.157c-42.439 18.62-69.861 60.597-69.861 106.94v27.438c0 4.143 3.357 7.5 7.5 7.5s7.5-3.357 7.5-7.5v-27.438c0-.027.001-.054.001-.081h32.685c-.539 10.747 1.896 21.665 7.42 31.516 1.376 2.453 3.924 3.833 6.549 3.833 1.242 0 2.501-.309 3.661-.959 3.613-2.026 4.899-6.598 2.874-10.21-5.167-9.214-6.705-19.682-4.765-29.573.104-.355.179-.722.23-1.097 1.393-6.241 4.178-12.223 8.327-17.478l1.276-1.616c1.046-1.324 1.614-2.962 1.614-4.648v-17.539c0-4.143-3.357-7.5-7.5-7.5s-7.5 3.357-7.5 7.5v14.938c-4.236 5.469-7.38 11.51-9.428 17.833h-34.32c5.122-34.222 27.446-63.944 59.764-78.123l5.565-2.441 34.514 60.434c1.568 2.746 4.241 4.699 7.334 5.358.767.163 1.541.243 2.313.243 2.342 0 4.65-.74 6.569-2.146l29.444-21.557v80.604c0 4.143 3.357 7.5 7.5 7.5s7.5-3.357 7.5-7.5v-80.604l29.443 21.556c1.92 1.406 4.228 2.146 6.57 2.146.771 0 1.545-.08 2.311-.243 3.093-.658 5.767-2.61 7.336-5.357l17.202-30.12c5.396 24.955 18.098 47.218 35.75 64.434.766 8.716-1.078 17.319-5.383 24.995-2.026 3.613-.74 8.185 2.872 10.21 1.161.651 2.42.96 3.662.96 2.625 0 5.173-1.38 6.548-3.832 3.541-6.314 5.838-13.096 6.86-20.092 21.015 15.166 46.799 24.116 74.636 24.116 70.488 0 127.834-57.346 127.834-127.833-.001-35.375-14.866-69.492-40.784-93.606zm-186.069-89.649v-39.848c8.462 2.688 14.62 10.583 14.62 19.924s-6.158 17.235-14.62 19.924zm-96.289 197.396-41.484-37.679 3.398-1.491c2.726-1.196 4.486-3.892 4.486-6.868v-29.557l10.546 3.79c7.287 2.619 14.947 3.929 22.609 3.929 7.569 0 15.141-1.278 22.35-3.836l11.485-4.075v29.749c0 2.977 1.761 5.672 4.486 6.868l3.539 1.552zm-111.118-217.32c0-9.602 6.501-17.695 15.326-20.16-.322 2.592-.496 5.21-.496 7.846v32.347c-8.575-2.625-14.83-10.61-14.83-20.033zm29.83 53.355v-65.67c0-15.427 7.344-30.194 19.646-39.503l21.799-16.495 37.733 20.714c24.88 13.657 53.023 21.359 81.39 22.273l2.01.064v78.352c0 33.217-21.033 62.997-52.34 74.104l-12.06 4.278c-11.25 3.993-23.633 3.965-34.871-.071l-11.271-4.051c-31.125-11.185-52.036-40.922-52.036-73.995zm38.995 195.766-33.132-58.014 16.924-6.658 46.658 42.379zm109.369-43.393-24.781 43.393-30.451-22.293 46.658-42.379 9.841 3.871c-.567 4.876-.868 9.832-.868 14.857 0 .633.015 1.263.024 1.894-.151.209-.293.428-.423.657z"/><path d="m387.12 416.094c31.913 0 57.877-25.964 57.877-57.877 0-31.914-25.964-57.878-57.877-57.878-31.914 0-57.878 25.964-57.878 57.878 0 16.961 7.334 32.242 18.998 42.837l-20.135 28.994-12.127-8.421c-3.403-2.363-8.076-1.519-10.438 1.882-2.362 3.402-1.521 8.076 1.882 10.438l12.127 8.422-8.384 12.072c-2.362 3.402-1.521 8.076 1.882 10.438 1.305.906 2.796 1.341 4.271 1.341 2.375 0 4.71-1.125 6.167-3.223l8.384-12.073 12.127 8.421c1.305.906 2.796 1.341 4.271 1.341 2.375 0 4.71-1.125 6.167-3.223 2.362-3.402 1.521-8.076-1.882-10.438l-12.127-8.422 20.133-28.991c7.962 4.132 16.991 6.482 26.562 6.482zm-42.877-57.877c0-23.643 19.235-42.878 42.878-42.878s42.877 19.235 42.877 42.878-19.234 42.877-42.877 42.877-42.878-19.235-42.878-42.877z"/></g></svg>