<svg id="Capa_1" enable-background="new 0 0 512.907 512.907" height="512" viewBox="0 0 512.907 512.907" width="512" xmlns="http://www.w3.org/2000/svg"><g><path d="m179.22 154.535c15.873 0 28.787-12.913 28.787-28.786s-12.914-28.786-28.787-28.786-28.786 12.913-28.786 28.786 12.913 28.786 28.786 28.786zm0-42.572c7.603 0 13.787 6.185 13.787 13.786s-6.185 13.786-13.787 13.786-13.786-6.185-13.786-13.786 6.184-13.786 13.786-13.786z"/><path d="m23.774 443.613c-3.996-1.062-8.108 1.325-9.17 5.33-2.663 10.052-4.013 20.413-4.013 30.796v25.147c0 4.143 3.357 7.5 7.5 7.5s7.5-3.357 7.5-7.5v-25.147c0-9.087 1.182-18.156 3.513-26.956 1.061-4.004-1.325-8.109-5.33-9.17z"/><path d="m449.74 280.741c-3.347-2.441-8.038-1.707-10.479 1.64-2.44 3.347-1.707 8.038 1.64 10.479 29.063 21.201 46.415 55.3 46.415 91.214 0 62.217-50.617 112.833-112.834 112.833s-112.833-50.616-112.833-112.833 50.616-112.834 112.832-112.834c13.783 0 27.258 2.464 40.049 7.322 3.872 1.467 8.202-.476 9.675-4.349 1.471-3.872-.477-8.203-4.349-9.675-14.499-5.507-29.765-8.299-45.375-8.299-18.567 0-36.22 3.983-52.156 11.133l-19.779-58.648c1.631-4.101 2.538-8.565 2.538-13.241 0-3.178-.42-6.259-1.198-9.196l.123-15.429c.068-8.659-.255-17.397-.923-26.069 5.606-2.205 9.591-7.66 9.591-14.04v-10.004c0-8.322-6.771-15.093-15.093-15.093h-.054c-1.549-7.423-3.372-14.829-5.456-22.089-.058-.199-.123-.396-.196-.59l-2.629-6.93c-8.52-22.459-23.472-41.543-43.241-55.188-19.77-13.642-42.916-20.855-66.938-20.855-27.23 0-53.822 9.541-74.878 26.867-3.198 2.632-3.657 7.357-1.025 10.557 2.631 3.198 7.357 3.658 10.557 1.025 18.377-15.121 41.585-23.449 65.346-23.449 20.964 0 41.163 6.294 58.416 18.202s30.302 28.563 37.736 48.164l2.519 6.637c1.662 5.811 3.139 11.72 4.438 17.651h-47.646c-8.23-22.584-29.917-38.755-55.313-38.755-25.395 0-47.082 16.17-55.312 38.755h-47.944c1.3-5.93 2.781-11.848 4.455-17.702l2.499-6.586c2.78-7.328 6.399-14.339 10.759-20.836 2.309-3.439 1.391-8.099-2.049-10.406-3.441-2.311-8.101-1.391-10.406 2.049-4.996 7.445-9.144 15.478-12.329 23.873l-2.609 6.878c-.073.193-.149.428-.206.627-2.089 7.266-3.913 14.676-5.463 22.104h-.078c-8.322 0-15.093 6.771-15.093 15.093v10.004c0 6.39 3.998 11.852 9.619 14.05-.671 8.672-.999 17.409-.931 26.074l.123 15.412c-.778 2.937-1.198 6.019-1.198 9.197 0 4.676.906 9.141 2.538 13.241l-19.783 58.658c-7.189 21.316 1.797 44.84 21.368 55.934 7.306 4.142 15.293 6.141 23.202 6.141 13.662-.001 27.083-5.971 36.3-17.174l2.633-3.2c3.71 3.06 7.653 5.866 11.805 8.39v30.806l-23.112 10.14c-2.018-.033-4.042.399-5.925 1.314l-32.386 15.763c-1.645.8-3.073 1.93-4.228 3.29-15.105 9.783-28.042 23.116-37.414 38.558-2.149 3.541-1.021 8.154 2.52 10.303 1.217.738 2.559 1.09 3.885 1.09 2.534 0 5.008-1.285 6.418-3.609 6.604-10.881 15.249-20.535 25.254-28.362l22.497 32.5-4.985 9.789c-1.345 2.64-1.01 5.823.854 8.125l50.985 62.948c1.461 1.804 3.622 2.78 5.831 2.779 1.085 0 2.181-.235 3.211-.724 3.128-1.483 4.834-4.914 4.129-8.303l-20.165-96.998 41.37 26.132c2.812 1.776 6.034 2.664 9.256 2.664s6.444-.888 9.255-2.664l42.087-26.586-20.258 97.451c-.705 3.389 1.001 6.819 4.129 8.303 1.03.488 2.126.725 3.211.724 2.208 0 4.37-.976 5.831-2.779l44.74-55.239c22.942 34.348 62.057 57.018 106.372 57.018 70.488 0 127.834-57.346 127.834-127.833-.001-40.689-19.655-79.318-52.576-103.334zm-200.366 77.034-21.643-9.495v-32.157c3.696-2.348 7.222-4.916 10.555-7.695l3.173 3.856c5.134 6.241 11.656 10.972 19.076 13.882-5.035 9.869-8.823 20.476-11.161 31.609zm59.809-83.556c-16.325 9.74-30.31 23.011-40.886 38.756-5.987-1.85-11.246-5.348-15.253-10.22l-3.941-4.79c16.1-18.078 25.626-41.751 25.747-66.991 6.307-1.012 12.069-3.671 16.834-7.521l16.432 48.723c.254.754.621 1.435 1.067 2.043zm-21.057-128.375c.506 6.547.79 13.131.855 19.691-4.18-2.778-8.968-4.709-14.122-5.538v-14.153zm-13.267 29.506c8.774 2.499 15.225 10.569 15.225 20.134s-6.45 17.635-15.225 20.134zm22.725-54.696c.051 0 .093.042.093.093v10.004c0 .051-.042.093-.093.093h-59.749c.145-1.681.235-3.377.235-5.095s-.09-3.414-.235-5.095zm-118.364-38.755c24.179 0 43.85 19.671 43.85 43.85s-19.671 43.85-43.85 43.85c-24.178 0-43.849-19.671-43.849-43.85s19.671-43.85 43.849-43.85zm-58.614 48.945h-60.07c-.051 0-.093-.042-.093-.093v-10.004c0-.051.042-.093.093-.093h60.07c-.145 1.681-.235 3.377-.235 5.095s.09 3.414.235 5.095zm-52.549 64.64c0-9.196 5.966-16.997 14.225-19.802v39.618c-8.261-2.805-14.225-10.618-14.225-19.816zm14.224-35.306c-4.774.907-9.216 2.758-13.124 5.355.072-6.561.376-13.142.886-19.689h12.238zm-17.705 150.091c-13.327-7.556-19.447-23.575-14.552-38.092l16.435-48.733c4.509 3.641 9.91 6.215 15.822 7.338.002 25.598 9.725 49.639 26.17 67.896l-3.354 4.076c-9.91 12.047-26.952 15.204-40.521 7.515zm32.705-79.495v-84.931h26.626c8.23 22.584 29.917 38.755 55.312 38.755 25.396 0 47.083-16.17 55.313-38.755h25.326v84.643c0 36.508-23.117 69.237-57.523 81.444l-4.255 1.509c-12.94 4.592-27.187 4.562-40.109-.082l-3.5-1.258c-34.206-12.293-57.19-44.975-57.19-81.325zm1.938 210.749 4.808-9.44c1.252-2.458 1.054-5.405-.516-7.673l-25.21-36.418 28.098-13.676 21.274 102.337zm81.137-21.188c-.754.477-1.73.478-2.486-.001l-53.627-33.875-3.578-17.212 20.967-9.199c2.727-1.196 4.487-3.892 4.487-6.868v-28.217c1.084.433 2.175.855 3.279 1.252l3.5 1.258c8.137 2.925 16.69 4.387 25.245 4.387 8.451 0 16.904-1.428 24.952-4.283l4.255-1.509c1.824-.647 3.612-1.36 5.381-2.104v29.217c0 2.977 1.761 5.672 4.487 6.868l20.967 9.199-3.484 16.759zm50.823 56.318 16.273-78.286c1.695 15.167 6.054 29.539 12.598 42.639z"/><path d="m407.865 407.4-24.589-68.4 12.456-34.65c1.401-3.897-.622-8.193-4.521-9.595-3.893-1.4-8.193.623-9.595 4.521l-6.311 17.555-6.311-17.555c-1.4-3.897-5.7-5.92-9.595-4.521-3.898 1.401-5.922 5.697-4.521 9.595l12.459 34.65-24.589 68.4-8.911-3.634c-6.444-2.629-13.517-2.562-19.915.186-6.396 2.749-11.311 7.834-13.839 14.319l-1.082 2.774c-4.998 12.815.918 27.263 13.468 32.89 3.344 1.5 6.947 2.251 10.553 2.251 3.435 0 6.872-.682 10.085-2.048 6.586-2.801 11.752-8.27 14.173-15.004l28.027-77.965 28.027 77.965c2.421 6.734 7.587 12.203 14.173 15.004 3.214 1.366 6.649 2.048 10.085 2.048 3.605 0 7.209-.751 10.552-2.25 12.552-5.629 18.468-20.075 13.47-32.89l-1.082-2.776c-2.529-6.485-7.444-11.57-13.84-14.318s-13.469-2.815-19.915-.186zm-74.701 26.661c-1.027 2.857-3.132 5.086-5.927 6.273-2.795 1.188-5.858 1.158-8.631-.085-5.247-2.353-7.721-8.394-5.631-13.753l1.082-2.775c1.058-2.711 3.112-4.838 5.787-5.987 1.369-.588 2.812-.883 4.256-.883 1.377 0 2.756.269 4.072.805l9.496 3.873zm97.604-16.328c2.675 1.149 4.73 3.276 5.788 5.987l1.082 2.776c2.09 5.358-.384 11.398-5.633 13.753-2.77 1.242-5.834 1.272-8.63.084-2.795-1.188-4.899-3.416-5.927-6.273l-4.505-12.532 9.496-3.872c2.695-1.1 5.654-1.073 8.329.077z"/></g></svg>